<svg xmlns="http://www.w3.org/2000/svg" width="186.234" height="32.682" viewBox="0 0 186.234 32.682"><defs><style>.a{fill:#fff;}.b{fill:#ffc700;}.c{fill:#0e1c2a;}</style></defs><g transform="translate(-953.226 11.5)"><g transform="translate(992.49 -3.524)"><g transform="translate(0 0)"><g transform="translate(0 0.801)"><path class="a" d="M1006.357,16.514,997.3,4.628V16.514h-4.06v-18.7h3.793L1005.8,9.329V-2.184h4.059v18.7Z" transform="translate(-993.242 2.184)"/></g><g transform="translate(19.985 4.915)"><g transform="translate(0 0)"><path class="a" d="M1027.6,10.848h-9.962a3.32,3.32,0,0,0,3.5,2.806,4.7,4.7,0,0,0,3.474-1.469l2.323,2.057a7.563,7.563,0,0,1-13.329-4.728V9.46a7.128,7.128,0,0,1,7.079-7.452c4.781,0,6.972,3.713,6.972,7.773v.054C1027.657,10.235,1027.63,10.475,1027.6,10.848Zm-6.918-5.582c-1.683,0-2.777,1.2-3.1,3.045h6.117C1023.463,6.5,1022.394,5.266,1020.685,5.266Z" transform="translate(-1013.606 -2.008)"/></g></g><g transform="translate(52.873 4.908)"><g transform="translate(0 0)"><path class="a" d="M1055.533,6.254c-2.7,0-4.354,1.629-4.354,5.048v5.29h-4.061V2.275h4.061V5.159c.827-1.977,2.163-3.259,4.567-3.151V6.254Z" transform="translate(-1047.118 -2.002)"/></g></g><g transform="translate(64.042)"><path class="a" d="M1067.019,16.766a5.5,5.5,0,0,1-4.46-2.137V16.5H1058.5V-3h4.061V4.238a5.259,5.259,0,0,1,4.46-2.323c3.339,0,6.518,2.617,6.518,7.4v.053C1073.538,14.149,1070.411,16.766,1067.019,16.766Zm2.458-7.453a3.651,3.651,0,0,0-3.5-3.954c-1.9,0-3.473,1.576-3.473,3.954v.053c0,2.377,1.576,3.953,3.473,3.953a3.635,3.635,0,0,0,3.5-3.953Z" transform="translate(-1058.498 3)"/></g><g transform="translate(80.126 5.182)"><g transform="translate(0 0)"><path class="a" d="M1084.291,16.945c-1.1,2.911-2.271,4.006-4.7,4.006a6.722,6.722,0,0,1-3.606-.988l1.361-2.938a3.693,3.693,0,0,0,1.737.561,1.357,1.357,0,0,0,1.416-.935l-5.61-14.37h4.3l3.259,9.749,3.125-9.749h4.22Z" transform="translate(-1074.888 -2.28)"/></g></g><g transform="translate(95.944 4.915)"><g transform="translate(0 0)"><path class="a" d="M1098.458,16.912a7.31,7.31,0,0,1-7.453-7.4V9.46a7.35,7.35,0,0,1,7.506-7.452,7.041,7.041,0,0,1,5.717,2.4l-2.484,2.671a4.185,4.185,0,0,0-3.259-1.575,3.658,3.658,0,0,0-3.473,3.9V9.46a3.668,3.668,0,0,0,3.633,3.953,4.534,4.534,0,0,0,3.286-1.522l2.378,2.4A7.213,7.213,0,0,1,1098.458,16.912Z" transform="translate(-1091.005 -2.008)"/></g></g><g transform="translate(111.038 5.021)"><g transform="translate(0 0)"><path class="a" d="M1115.629,16.594v-1.55a5.506,5.506,0,0,1-4.328,1.817c-2.7,0-4.915-1.55-4.915-4.381v-.054c0-3.125,2.377-4.566,5.77-4.566a10.165,10.165,0,0,1,3.5.587V8.207c0-1.684-1.041-2.619-3.072-2.619a10.513,10.513,0,0,0-3.953.776l-1.015-3.1a12.627,12.627,0,0,1,5.556-1.149c4.435,0,6.384,2.3,6.384,6.17v8.308Zm.079-5.77a6.289,6.289,0,0,0-2.591-.535c-1.737,0-2.8.694-2.8,1.977v.054c0,1.094.909,1.736,2.217,1.736,1.9,0,3.179-1.042,3.179-2.51Z" transform="translate(-1106.386 -2.116)"/></g></g><g transform="translate(36.453 5.021)"><g transform="translate(0 0)"><path class="a" d="M1039.629,16.594v-1.55a5.507,5.507,0,0,1-4.328,1.817c-2.7,0-4.915-1.55-4.915-4.381v-.054c0-3.125,2.377-4.566,5.77-4.566a10.162,10.162,0,0,1,3.5.587V8.207c0-1.684-1.041-2.619-3.071-2.619a10.512,10.512,0,0,0-3.953.776l-1.015-3.1a12.626,12.626,0,0,1,5.556-1.149c4.435,0,6.384,2.3,6.384,6.17v8.308Zm.08-5.77a6.292,6.292,0,0,0-2.591-.535c-1.737,0-2.8.694-2.8,1.977v.054c0,1.094.909,1.736,2.217,1.736,1.9,0,3.179-1.042,3.179-2.51Z" transform="translate(-1030.386 -2.116)"/></g></g><g transform="translate(127.71 4.908)"><g transform="translate(0 0)"><path class="a" d="M1131.789,6.254c-2.7,0-4.354,1.629-4.354,5.048v5.29h-4.061V2.275h4.061V5.159c.829-1.977,2.164-3.259,4.568-3.151V6.254Z" transform="translate(-1123.374 -2.002)"/></g></g><g transform="translate(137.836 1.522)"><path class="a" d="M1139.569,16.768c-2.484,0-4.167-.988-4.167-4.3V5.683h-1.71V2.211h1.71v-3.66h4.06v3.66h3.365V5.683h-3.365V11.8c0,.935.4,1.39,1.309,1.39a4.135,4.135,0,0,0,2-.507V15.94A5.987,5.987,0,0,1,1139.569,16.768Z" transform="translate(-1133.692 1.449)"/></g></g></g><g transform="translate(953.226 -11.5)"><path class="b" d="M980.471-8.735l-6.583.54a7.5,7.5,0,0,0-5.517-5.367,7.02,7.02,0,0,0-3.338-1.378V-15h-.847v.048a8.463,8.463,0,0,0-7.561,8.174l-5.4.442,3.342,20.891,19.3,3.127,4.6-2.291,4.512-21.059Zm-7.512.616-1.337.11A8.887,8.887,0,0,0,969.95-12,6.9,6.9,0,0,1,972.959-8.118Zm-4.952-4.587a7.706,7.706,0,0,1,2.7,4.771l-9.694.8a7.08,7.08,0,0,1,6.476-5.628C967.666-12.754,967.837-12.733,968.007-12.706Zm-3.414-1.366a5.951,5.951,0,0,1,1.987.5,8,8,0,0,0-6.506,6.515l-2.538.208A7.546,7.546,0,0,1,964.592-14.072Zm9.562,30.548-.369-.093,6.227-24.444.368.094Z" transform="translate(-951.226 15)"/><g transform="translate(6.439 11.008)"><path class="c" d="M967.519.006a4,4,0,0,1,.891,1.451,1.55,1.55,0,0,1,.108-.358,1.616,1.616,0,0,1,.4-.569,1.7,1.7,0,0,1,1.243-.456A1.719,1.719,0,0,1,971.395.6a1.692,1.692,0,0,1,.491,1.278l0,.064,2.334.067,0-.064a3.946,3.946,0,0,0-1.111-2.93,4.016,4.016,0,0,0-2.879-1.276,3.963,3.963,0,0,0-2.911,1.112,4.262,4.262,0,0,0-.507.56A4.4,4.4,0,0,1,967.519.006Z" transform="translate(-959.782 2.262)"/><path class="c" d="M970.646,7a1.765,1.765,0,0,1-.142.682,1.657,1.657,0,0,1-.385.569,1.572,1.572,0,0,1-.572.353,1.776,1.776,0,0,1-.689.121,1.744,1.744,0,0,1-1.212-.562,1.685,1.685,0,0,1-.492-1.261l.1-3.492a3.951,3.951,0,0,0-1.111-2.93,4.02,4.02,0,0,0-2.88-1.276A3.97,3.97,0,0,0,960.35.32a3.883,3.883,0,0,0-1.282,2.713h-.007l-.219,7.747,2.338.067.215-7.6h.015a1.766,1.766,0,0,1,.142-.681,1.607,1.607,0,0,1,.4-.569,1.7,1.7,0,0,1,1.243-.456,1.719,1.719,0,0,1,1.231.527,1.693,1.693,0,0,1,.491,1.278l-.1,3.492a3.95,3.95,0,0,0,1.111,2.93,4.069,4.069,0,0,0,5.791.164A3.945,3.945,0,0,0,973,7.072Z" transform="translate(-958.7 2.063)"/><path class="c" d="M960.028,13.094a1.313,1.313,0,1,0,1.275,1.35A1.313,1.313,0,0,0,960.028,13.094Zm-.052,1.837a.525.525,0,1,1,.539-.51A.525.525,0,0,1,959.976,14.931Z" transform="translate(-958.677 0.177)"/><path class="c" d="M970.353,13.387a1.313,1.313,0,1,0,1.276,1.35A1.313,1.313,0,0,0,970.353,13.387Zm-.052,1.837a.525.525,0,1,1,.54-.51A.525.525,0,0,1,970.3,15.224Z" transform="translate(-960.08 0.137)"/></g></g></g></svg>