<svg xmlns="http://www.w3.org/2000/svg" width="11.789" height="17.113" viewBox="0 0 11.789 17.113"><defs><style>.a{fill:#fff;}</style></defs><g transform="translate(-66.905 0)"><path class="a" d="M78.416,4.259a5.331,5.331,0,0,0-.276-.685A5.863,5.863,0,0,0,66.9,5.309v.73c0,.03.01.3.025.441.213,1.7,1.557,3.514,2.561,5.218,1.08,1.825,2.2,3.621,3.311,5.415.685-1.171,1.367-2.358,2.036-3.5.182-.335.394-.669.577-.989.122-.213.354-.426.46-.624,1.08-1.977,2.818-3.97,2.818-5.932V5.263A6.072,6.072,0,0,0,78.416,4.259ZM72.767,7.925a2.092,2.092,0,0,1-2-1.43,1.984,1.984,0,0,1-.056-.533V5.491a1.981,1.981,0,0,1,2.125-1.947,2.154,2.154,0,0,1,2.158,2.191A2.21,2.21,0,0,1,72.767,7.925Z"/></g></svg>